<svg width="556" height="500" viewBox="0 0 556 500" fill="none" xmlns="http://www.w3.org/2000/svg">
<g clip-path="url(#clip0_1403_3074)">
<path d="M109.214 451.739C53.0461 412.369 132.617 327.068 179.424 289.338L369.713 301.149C456.59 370.44 444.188 430.414 427.128 451.739C407.989 463.769 339.094 493.307 322.835 454.692C309.712 423.524 326.843 408.869 349.7 405.48C279.162 401.215 146.944 395.243 182.377 405.48C217.81 415.716 217.044 440.585 212.233 451.739C203.412 476.346 165.382 491.11 109.214 451.739Z" fill="#FEF9E2"/>
<path d="M144.609 470.038C110.838 465.895 85.4826 446.062 87.9758 425.739C90.469 405.416 119.867 392.3 153.638 396.443C187.408 400.586 212.764 420.419 210.271 440.742C207.778 461.065 178.38 474.181 144.609 470.038Z" fill="#FEF9E2"/>
<path d="M196.851 412.041L157.48 474.049C187.664 486.516 209.974 475.361 205.053 459.613C228.019 439.928 214.348 420.243 196.851 412.041Z" fill="#453C3C" stroke="black"/>
<path d="M378.495 472.208C412.451 470.063 438.931 451.758 437.64 431.324C436.349 410.89 407.776 396.064 373.819 398.209C339.863 400.354 313.383 418.659 314.674 439.093C315.965 459.528 344.538 474.354 378.495 472.208Z" fill="#FEF9E2"/>
<path d="M332.349 411.385L372.019 474.049C341.836 486.516 319.526 475.362 324.447 459.614C301.481 439.929 314.851 419.587 332.349 411.385Z" fill="#453C3C" stroke="black"/>
<path d="M326.304 74.2271L275.51 67.3242C320.211 46.8837 349.841 14.7159 350.066 6.20129C372.703 58.6947 338.075 71.2638 326.304 74.2271Z" fill="#FEC88F"/>
<path d="M198.491 75.4271L238.408 64.2581C206.673 49.7465 185.637 26.9093 185.477 20.8644C169.406 58.1316 190.134 73.3234 198.491 75.4271Z" fill="#FEC88F"/>
<path d="M119.093 98.5769C120.285 113.318 139.513 123.791 162.038 121.969C184.565 120.147 203.522 99.9424 202.33 85.2009C201.137 70.4601 182.114 63.1246 159.588 64.9464C137.062 66.7685 117.901 83.8361 119.093 98.5769Z" fill="#FEF9E2"/>
<path d="M120.205 102.018C121.595 112.403 140.031 124.328 162.557 122.505C185.084 120.684 203.851 110.491 203.084 102.018C203.084 102.018 185.084 80.4948 162.557 82.317C140.031 84.1385 120.205 102.018 120.205 102.018Z" fill="#FCBFAF"/>
<path d="M270.342 320.178C339.921 320.178 396.326 257.457 396.326 180.086C396.326 102.715 339.921 39.9941 270.342 39.9941C200.762 39.9941 144.357 102.715 144.357 180.086C144.357 257.457 200.762 320.178 270.342 320.178Z" fill="#FEF9E2"/>
<path d="M269.686 314.6C381.234 248.196 385.171 216.503 358.924 76.0833C379.922 103.97 395.998 128.577 395.998 180.742C395.998 269.981 319.554 314.6 269.686 314.6Z" fill="#DDB590"/>
<path d="M436.307 87.2789C434.816 105.717 410.767 118.816 382.593 116.537C354.418 114.259 330.708 88.9869 332.199 70.5493C333.69 52.112 357.483 42.9372 385.658 45.2159C413.832 47.4946 437.798 68.8419 436.307 87.2789Z" fill="#FEF9E2"/>
<path d="M434.898 91.7926C433.167 104.689 410.118 119.486 381.943 117.207C353.769 114.929 333.444 93.8674 334.398 83.3458C334.398 83.3458 354.269 61.7201 382.443 63.9988C410.618 66.2775 434.898 91.7926 434.898 91.7926Z" fill="#FCBFAF"/>
<path d="M160.434 111.516C170.67 81.8577 227.691 38.6816 250.656 41.9625C305.447 66.569 262.139 126.936 238.189 111.516C218.268 98.6904 212.052 103.861 208.334 111.516C202.429 151.871 147.639 148.59 160.434 111.516Z" fill="#453C3C" stroke="black"/>
<path d="M268.373 320.178C336.865 320.178 392.389 286.1 392.389 244.062C392.389 202.025 336.865 167.947 268.373 167.947C199.881 167.947 144.357 202.025 144.357 244.062C144.357 286.1 199.881 320.178 268.373 320.178Z" fill="#FAC0AF"/>
<path d="M216.207 235.532C223.274 235.532 229.003 229.804 229.003 222.737C229.003 215.67 223.274 209.942 216.207 209.942C209.141 209.942 203.412 215.67 203.412 222.737C203.412 229.804 209.141 235.532 216.207 235.532Z" fill="#AF7B6F"/>
<path d="M216.207 235.532C223.274 235.532 229.003 229.804 229.003 222.737C229.003 215.67 223.274 209.942 216.207 209.942C209.141 209.942 203.412 215.67 203.412 222.737C203.412 229.804 209.141 235.532 216.207 235.532Z" fill="#AF7B6F"/>
<path d="M216.207 235.532C223.274 235.532 229.003 229.804 229.003 222.737C229.003 215.67 223.274 209.942 216.207 209.942C209.141 209.942 203.412 215.67 203.412 222.737C203.412 229.804 209.141 235.532 216.207 235.532Z" fill="#AF7B6F"/>
<path d="M274.606 235.532C281.672 235.532 287.401 229.804 287.401 222.737C287.401 215.67 281.672 209.942 274.606 209.942C267.539 209.942 261.811 215.67 261.811 222.737C261.811 229.804 267.539 235.532 274.606 235.532Z" fill="#AF7B6F"/>
<path d="M274.606 235.532C281.672 235.532 287.401 229.804 287.401 222.737C287.401 215.67 281.672 209.942 274.606 209.942C267.539 209.942 261.811 215.67 261.811 222.737C261.811 229.804 267.539 235.532 274.606 235.532Z" fill="#AF7B6F"/>
<path d="M274.606 235.532C281.672 235.532 287.401 229.804 287.401 222.737C287.401 215.67 281.672 209.942 274.606 209.942C267.539 209.942 261.811 215.67 261.811 222.737C261.811 229.804 267.539 235.532 274.606 235.532Z" fill="#AF7B6F"/>
<path d="M216.863 313.616C266.076 310.335 382.546 329.692 374.016 204.364C423.884 247.015 372.047 346.753 216.863 313.616Z" fill="#E49DA6"/>
<path d="M288.714 179.758C295.237 179.758 300.525 173.001 300.525 164.666C300.525 156.331 295.237 149.574 288.714 149.574C282.191 149.574 276.903 156.331 276.903 164.666C276.903 173.001 282.191 179.758 288.714 179.758Z" fill="#453C3C"/>
<path d="M265.188 302.942C292.695 299.604 293.41 274.18 290.329 261.885C265.106 271.276 226.554 274.307 210.432 274.649C217.223 285.471 237.681 306.279 265.188 302.942Z" fill="#AF7B6F"/>
<path d="M324.147 163.682C324.147 181.257 311.662 195.506 296.26 195.506C280.859 195.506 268.373 181.257 268.373 163.682C268.373 146.106 280.859 127.264 296.26 127.264C311.662 127.264 324.147 146.106 324.147 163.682Z" fill="white"/>
<path d="M297.244 179.758C303.767 179.758 309.055 173.001 309.055 164.666C309.055 156.331 303.767 149.574 297.244 149.574C290.721 149.574 285.433 156.331 285.433 164.666C285.433 173.001 290.721 179.758 297.244 179.758Z" fill="#453C3C"/>
<path d="M291.011 161.385C295.178 161.385 298.557 158.007 298.557 153.839C298.557 149.672 295.178 146.293 291.011 146.293C286.843 146.293 283.465 149.672 283.465 153.839C283.465 158.007 286.843 161.385 291.011 161.385Z" fill="white"/>
<path d="M240.157 162.369C240.157 179.945 227.672 194.194 212.27 194.194C196.868 194.194 184.383 179.945 184.383 162.369C184.383 144.793 196.868 125.952 212.27 125.952C227.672 125.952 240.157 144.793 240.157 162.369Z" fill="white"/>
<path d="M213.254 178.445C219.777 178.445 225.065 171.689 225.065 163.354C225.065 155.019 219.777 148.262 213.254 148.262C206.731 148.262 201.443 155.019 201.443 163.354C201.443 171.689 206.731 178.445 213.254 178.445Z" fill="#453C3C"/>
<path d="M207.021 160.073C211.188 160.073 214.566 156.694 214.566 152.527C214.566 148.359 211.188 144.981 207.021 144.981C202.853 144.981 199.475 148.359 199.475 152.527C199.475 156.694 202.853 160.073 207.021 160.073Z" fill="white"/>
<path d="M121.352 339.965C109.193 354.364 134.152 433.693 148.151 471.558H301.342C313.209 431.96 335.101 350.204 327.741 339.965C308.942 317.566 136.551 321.966 121.352 339.965Z" fill="#D9D9D9"/>
<path d="M308.5 448.764C235.473 480.123 166.078 461.831 140.509 448.764L155.467 487.963H297.761L308.5 448.764Z" fill="#80808A"/>
<path d="M332.5 351.57C335.341 333.57 303.435 330.504 287.302 329.171C301.381 354.769 277.036 445.032 265.303 477.563L302.101 472.763C309.301 451.164 328.963 373.969 332.5 351.57Z" fill="#80808A"/>
<path d="M300.981 471.163H148.989C133.63 480.762 142.59 494.095 148.989 499.562H300.981C315.061 485.482 306.848 474.763 300.981 471.163Z" fill="#80808A"/>
<path d="M56.4301 120.703H83.333V147.606H56.4301V120.703Z" fill="black"/>
<path d="M499.344 363.485H472.441V390.388H499.344V363.485Z" fill="black"/>
<path d="M83.333 164.666H-0.000326157" stroke="black" stroke-width="8"/>
<path d="M472.441 407.448H555.775" stroke="black" stroke-width="8"/>
<path d="M83.333 188.944H58.3986" stroke="black" stroke-width="8"/>
<path d="M472.441 431.726H497.376" stroke="black" stroke-width="8"/>
<path d="M83.333 213.222H19.0285" stroke="black" stroke-width="8"/>
<path d="M472.441 456.005H536.746" stroke="black" stroke-width="8"/>
<mask id="mask0_1403_3074" style="mask-type:luminance" maskUnits="userSpaceOnUse" x="190" y="386" width="40" height="51">
<path d="M229.003 386.451H190.289V436.976H229.003V386.451Z" fill="white"/>
</mask>
<g mask="url(#mask0_1403_3074)">
<path d="M228.592 386.672L217.227 436.218H205.733L217.09 386.672H228.592Z" fill="#1C1C1C"/>
<path d="M196.087 436.754C199.058 436.754 201.466 434.356 201.466 431.398C201.466 428.439 199.058 426.041 196.087 426.041C193.116 426.041 190.708 428.439 190.708 431.398C190.708 434.356 193.116 436.754 196.087 436.754Z" fill="#FF7070"/>
</g>
</g>
<defs>
<clipPath id="clip0_1403_3074">
<rect width="555.774" height="500" fill="white"/>
</clipPath>
</defs>
</svg>
