<svg width="1810" height="657" viewBox="0 0 1810 657" fill="none" xmlns="http://www.w3.org/2000/svg">
<path d="M561.497 291.412C571.497 276.078 583.997 264.078 598.997 255.412C613.997 246.412 630.663 241.912 648.997 241.912V332.412H625.497C604.163 332.412 588.163 337.078 577.497 346.412C566.83 355.412 561.497 371.412 561.497 394.412V523.912H475.997V244.912H561.497V291.412ZM733.864 215.912C718.864 215.912 706.53 211.578 696.864 202.912C687.53 193.912 682.864 182.912 682.864 169.912C682.864 156.578 687.53 145.578 696.864 136.912C706.53 127.912 718.864 123.412 733.864 123.412C748.53 123.412 760.53 127.912 769.864 136.912C779.53 145.578 784.364 156.578 784.364 169.912C784.364 182.912 779.53 193.912 769.864 202.912C760.53 211.578 748.53 215.912 733.864 215.912ZM776.364 244.912V523.912H690.864V244.912H776.364ZM924.825 284.412C933.158 271.412 944.658 260.912 959.325 252.912C973.991 244.912 991.158 240.912 1010.82 240.912C1033.82 240.912 1054.66 246.745 1073.32 258.412C1091.99 270.078 1106.66 286.745 1117.32 308.412C1128.32 330.078 1133.82 355.245 1133.82 383.912C1133.82 412.578 1128.32 437.912 1117.32 459.912C1106.66 481.578 1091.99 498.412 1073.32 510.412C1054.66 522.078 1033.82 527.912 1010.82 527.912C991.491 527.912 974.325 523.912 959.325 515.912C944.658 507.912 933.158 497.578 924.825 484.912V656.912H839.325V244.912H924.825V284.412ZM1046.82 383.912C1046.82 362.578 1040.82 345.912 1028.82 333.912C1017.16 321.578 1002.66 315.412 985.325 315.412C968.325 315.412 953.825 321.578 941.825 333.912C930.158 346.245 924.325 363.078 924.325 384.412C924.325 405.745 930.158 422.578 941.825 434.912C953.825 447.245 968.325 453.412 985.325 453.412C1002.32 453.412 1016.82 447.245 1028.82 434.912C1040.82 422.245 1046.82 405.245 1046.82 383.912ZM1265.18 153.912V523.912H1179.68V153.912H1265.18ZM1591.14 379.912C1591.14 387.912 1590.64 396.245 1589.64 404.912H1396.14C1397.47 422.245 1402.97 435.578 1412.64 444.912C1422.64 453.912 1434.81 458.412 1449.14 458.412C1470.47 458.412 1485.31 449.412 1493.64 431.412H1584.64C1579.97 449.745 1571.47 466.245 1559.14 480.912C1547.14 495.578 1531.97 507.078 1513.64 515.412C1495.31 523.745 1474.81 527.912 1452.14 527.912C1424.81 527.912 1400.47 522.078 1379.14 510.412C1357.81 498.745 1341.14 482.078 1329.14 460.412C1317.14 438.745 1311.14 413.412 1311.14 384.412C1311.14 355.412 1316.97 330.078 1328.64 308.412C1340.64 286.745 1357.31 270.078 1378.64 258.412C1399.97 246.745 1424.47 240.912 1452.14 240.912C1479.14 240.912 1503.14 246.578 1524.14 257.912C1545.14 269.245 1561.47 285.412 1573.14 306.412C1585.14 327.412 1591.14 351.912 1591.14 379.912ZM1503.64 357.412C1503.64 342.745 1498.64 331.078 1488.64 322.412C1478.64 313.745 1466.14 309.412 1451.14 309.412C1436.81 309.412 1424.64 313.578 1414.64 321.912C1404.97 330.245 1398.97 342.078 1396.64 357.412H1503.64ZM1792.75 451.412V523.912H1749.25C1718.25 523.912 1694.08 516.412 1676.75 501.412C1659.41 486.078 1650.75 461.245 1650.75 426.912V315.912H1616.75V244.912H1650.75V176.912H1736.25V244.912H1792.25V315.912H1736.25V427.912C1736.25 436.245 1738.25 442.245 1742.25 445.912C1746.25 449.578 1752.91 451.412 1762.25 451.412H1792.75Z" fill="#48CAE4"/>
<g clip-path="url(#clip0_448_5756)">
<path d="M270.866 517.403L395.639 301.015L303.019 247.473L178.247 463.861L270.866 517.403Z" fill="#CAF0F8"/>
<path d="M166.126 113.51L166.126 509.404C166.126 517.289 172.51 523.682 180.386 523.682H259.315C267.19 523.682 273.575 517.289 273.575 509.404V113.51C273.575 105.625 267.19 99.2324 259.315 99.2324H180.386C172.51 99.2324 166.126 105.625 166.126 113.51Z" fill="#90E0EF"/>
<path d="M49.4312 60.9906C55.0298 51.7192 68.4971 51.8246 73.9502 61.1824L119.901 140.036C125.473 149.597 118.529 161.595 107.473 161.509L14.3462 160.78C3.29067 160.694 -3.46538 148.588 2.25498 139.116L49.4312 60.9906Z" fill="#48CAE4"/>
<path d="M432.054 54.2563H59.875V161.341H432.054V54.2563Z" fill="#48CAE4"/>
<path d="M302.872 261.899C297.467 252.41 304.274 240.605 315.184 240.547L406.017 240.071C417.027 240.012 423.946 251.94 418.441 261.487L372.612 340.967C367.106 350.515 353.331 350.478 347.875 340.902L302.872 261.899Z" fill="#CAF0F8"/>
<path d="M359.138 14.8125C359.138 3.82129 371.022 -3.04822 380.528 2.44736L541.18 95.3182C550.686 100.814 550.686 114.553 541.18 120.048L380.528 212.919C371.022 218.415 359.138 211.545 359.138 200.554V14.8125Z" fill="#48CAE4"/>
</g>
<defs>
<clipPath id="clip0_448_5756">
<rect width="549" height="524" fill="white"/>
</clipPath>
</defs>
</svg>
