<svg width="50" height="50" viewBox="0 0 50 50" fill="none" xmlns="http://www.w3.org/2000/svg">
<path fill-rule="evenodd" clip-rule="evenodd" d="M4.85312 21.175C5.03879 20.8054 5.36346 20.5244 5.75595 20.3938C6.14844 20.2631 6.57672 20.2935 6.94687 20.4781L25 29.5L43.05 20.475C43.2336 20.3812 43.434 20.3247 43.6396 20.3087C43.8452 20.2927 44.0519 20.3175 44.2479 20.3818C44.4438 20.4461 44.6251 20.5485 44.7812 20.6832C44.9374 20.8178 45.0653 20.9821 45.1577 21.1664C45.2501 21.3508 45.3051 21.5516 45.3195 21.7573C45.3339 21.963 45.3074 22.1695 45.2417 22.365C45.1759 22.5604 45.072 22.7409 44.9362 22.896C44.8003 23.0511 44.6351 23.1778 44.45 23.2688L25.7 32.6438C25.4827 32.7526 25.243 32.8093 25 32.8093C24.757 32.8093 24.5173 32.7526 24.3 32.6438L5.55 23.2688C5.18035 23.0831 4.89941 22.7584 4.76877 22.3659C4.63814 21.9734 4.66847 21.5452 4.85312 21.175Z" fill="black" fill-opacity="0.3"/>
</svg>
