<svg width="512" height="512" viewBox="0 0 512 512" fill="none" xmlns="http://www.w3.org/2000/svg">
<circle cx="256" cy="256" r="256" fill="#60A9C8"/>
<path d="M103.888 340H149.786C199.471 340 228.731 309.133 228.731 256.58C228.731 204.026 199.471 174.421 149.786 174.421H103.888C92.9868 174.421 86.561 181.077 86.561 192.437V321.87C86.561 333.345 92.9868 340 103.888 340ZM121.214 311.313V202.993H145.655C176.178 202.993 193.39 222.041 193.39 256.694C193.39 292.495 176.637 311.313 145.655 311.313H121.214ZM266.598 342.18C276.351 342.18 281.974 336.213 281.974 326.001V228.237H282.892L323.856 328.525C326.725 335.64 331.544 338.967 338.888 338.967C346.117 338.967 350.707 335.754 353.69 328.411L394.654 228.237H395.572V326.001C395.572 336.213 401.195 342.18 410.948 342.18C420.702 342.18 426.439 336.213 426.439 326.001V194.502C426.439 180.388 418.177 172.126 404.178 172.126C392.015 172.126 385.245 177.29 380.196 190.027L339.232 291.807H338.314L297.235 190.027C292.186 177.175 285.531 172.126 273.482 172.126C259.369 172.126 251.107 180.503 251.107 194.502V326.001C251.107 336.213 256.844 342.18 266.598 342.18Z" fill="white"/>
</svg>
