<svg width="25" height="25" viewBox="0 0 25 25" fill="none" xmlns="http://www.w3.org/2000/svg">
<path d="M7.85313 23.4375C17.2875 23.4375 22.4484 15.6203 22.4484 8.85314C22.4484 8.63439 22.4484 8.41251 22.4391 8.19376C23.4438 7.4664 24.311 6.56588 25 5.53439C24.0614 5.94822 23.0668 6.22096 22.0484 6.34376C23.1211 5.70257 23.9246 4.69372 24.3094 3.5047C23.3015 4.10177 22.1985 4.52091 21.0484 4.74376C20.2753 3.92036 19.2522 3.37489 18.1376 3.19182C17.0231 3.00876 15.8793 3.19833 14.8833 3.73117C13.8874 4.264 13.095 5.11037 12.6288 6.13917C12.1626 7.16797 12.0487 8.32178 12.3047 9.42189C10.2652 9.31963 8.27003 8.78981 6.4485 7.8668C4.62698 6.94379 3.01982 5.64821 1.73125 4.06408C1.07709 5.19389 0.877459 6.53033 1.17288 7.80199C1.46831 9.07366 2.23665 10.1852 3.32187 10.911C2.50866 10.8833 1.71331 10.665 1 10.2735V10.3438C1.0014 11.5273 1.41142 12.6741 2.16074 13.5903C2.91006 14.5064 3.95273 15.1358 5.1125 15.3719C4.67229 15.4932 4.21755 15.5536 3.76094 15.5516C3.43904 15.5526 3.11778 15.5227 2.80156 15.4625C3.12935 16.4814 3.76761 17.3721 4.62695 18.0101C5.48628 18.6481 6.52365 19.0013 7.59375 19.0203C5.77587 20.4481 3.53031 21.2225 1.21875 21.2188C0.811439 21.2205 0.404411 21.197 0 21.1485C2.34612 22.6442 5.07078 23.4384 7.85313 23.4375Z" fill="black"/>
</svg>
