<svg width="674" height="191" viewBox="0 0 674 191" fill="none" xmlns="http://www.w3.org/2000/svg">
<rect x="0.5" y="0.5" width="24" height="24" stroke="black" stroke-opacity="0.05"/>
<rect x="25.5" y="0.5" width="24" height="24" stroke="black" stroke-opacity="0.05"/>
<rect x="50.5" y="0.5" width="24" height="24" stroke="black" stroke-opacity="0.05"/>
<rect x="75.5" y="0.5" width="24" height="24" stroke="black" stroke-opacity="0.05"/>
<rect x="100.5" y="0.5" width="24" height="24" stroke="black" stroke-opacity="0.05"/>
<rect x="125.5" y="0.5" width="24" height="24" stroke="black" stroke-opacity="0.05"/>
<rect x="150.5" y="0.5" width="24" height="24" stroke="black" stroke-opacity="0.05"/>
<rect x="175.5" y="0.5" width="24" height="24" stroke="black" stroke-opacity="0.05"/>
<rect x="200.5" y="0.5" width="24" height="24" stroke="black" stroke-opacity="0.05"/>
<rect x="225.5" y="0.5" width="24" height="24" stroke="black" stroke-opacity="0.05"/>
<rect x="250.5" y="0.5" width="24" height="24" stroke="black" stroke-opacity="0.05"/>
<rect x="275.5" y="0.5" width="24" height="24" stroke="black" stroke-opacity="0.05"/>
<rect x="300.5" y="0.5" width="24" height="24" stroke="black" stroke-opacity="0.05"/>
<rect x="325.5" y="0.5" width="24" height="24" stroke="black" stroke-opacity="0.05"/>
<rect x="350.5" y="0.5" width="24" height="24" stroke="black" stroke-opacity="0.05"/>
<rect x="375.5" y="0.5" width="24" height="24" stroke="black" stroke-opacity="0.05"/>
<rect x="400.5" y="0.5" width="24" height="24" stroke="black" stroke-opacity="0.05"/>
<rect x="425.5" y="0.5" width="24" height="24" stroke="black" stroke-opacity="0.05"/>
<rect x="450.5" y="0.5" width="24" height="24" stroke="black" stroke-opacity="0.05"/>
<rect x="475.5" y="0.5" width="24" height="24" stroke="black" stroke-opacity="0.05"/>
<rect x="500.5" y="0.5" width="24" height="24" stroke="black" stroke-opacity="0.05"/>
<rect x="525.5" y="0.5" width="24" height="24" stroke="black" stroke-opacity="0.05"/>
<rect x="550.5" y="0.5" width="24" height="24" stroke="black" stroke-opacity="0.05"/>
<rect x="575.5" y="0.5" width="24" height="24" stroke="black" stroke-opacity="0.05"/>
<rect x="600.5" y="0.5" width="24" height="24" stroke="black" stroke-opacity="0.05"/>
<rect x="625.5" y="0.5" width="24" height="24" stroke="black" stroke-opacity="0.05"/>
<rect x="650.5" y="0.5" width="24" height="24" stroke="black" stroke-opacity="0.05"/>
<rect x="0.5" y="25.5" width="24" height="24" stroke="black" stroke-opacity="0.05"/>
<rect x="25.5" y="25.5" width="24" height="24" stroke="black" stroke-opacity="0.05"/>
<rect x="50.5" y="25.5" width="24" height="24" stroke="black" stroke-opacity="0.05"/>
<rect x="75.5" y="25.5" width="24" height="24" stroke="black" stroke-opacity="0.05"/>
<rect x="100.5" y="25.5" width="24" height="24" stroke="black" stroke-opacity="0.05"/>
<rect x="125.5" y="25.5" width="24" height="24" stroke="black" stroke-opacity="0.05"/>
<rect x="150.5" y="25.5" width="24" height="24" stroke="black" stroke-opacity="0.05"/>
<rect x="175.5" y="25.5" width="24" height="24" stroke="black" stroke-opacity="0.05"/>
<rect x="200.5" y="25.5" width="24" height="24" stroke="black" stroke-opacity="0.05"/>
<rect x="225.5" y="25.5" width="24" height="24" stroke="black" stroke-opacity="0.05"/>
<rect x="250.5" y="25.5" width="24" height="24" stroke="black" stroke-opacity="0.05"/>
<rect x="275.5" y="25.5" width="24" height="24" stroke="black" stroke-opacity="0.05"/>
<rect x="300.5" y="25.5" width="24" height="24" stroke="black" stroke-opacity="0.05"/>
<rect x="325.5" y="25.5" width="24" height="24" stroke="black" stroke-opacity="0.05"/>
<rect x="350.5" y="25.5" width="24" height="24" stroke="black" stroke-opacity="0.05"/>
<rect x="375.5" y="25.5" width="24" height="24" stroke="black" stroke-opacity="0.05"/>
<rect x="400.5" y="25.5" width="24" height="24" stroke="black" stroke-opacity="0.05"/>
<rect x="425.5" y="25.5" width="24" height="24" stroke="black" stroke-opacity="0.05"/>
<rect x="450.5" y="25.5" width="24" height="24" stroke="black" stroke-opacity="0.05"/>
<rect x="475.5" y="25.5" width="24" height="24" stroke="black" stroke-opacity="0.05"/>
<rect x="500.5" y="25.5" width="24" height="24" stroke="black" stroke-opacity="0.05"/>
<rect x="525.5" y="25.5" width="24" height="24" stroke="black" stroke-opacity="0.05"/>
<rect x="550.5" y="25.5" width="24" height="24" stroke="black" stroke-opacity="0.05"/>
<rect x="575.5" y="25.5" width="24" height="24" stroke="black" stroke-opacity="0.05"/>
<rect x="600.5" y="25.5" width="24" height="24" stroke="black" stroke-opacity="0.05"/>
<rect x="625.5" y="25.5" width="24" height="24" stroke="black" stroke-opacity="0.05"/>
<rect x="650.5" y="25.5" width="24" height="24" stroke="black" stroke-opacity="0.05"/>
<rect x="0.5" y="50.5" width="24" height="24" stroke="black" stroke-opacity="0.05"/>
<rect x="25.5" y="50.5" width="24" height="24" stroke="black" stroke-opacity="0.05"/>
<rect x="50.5" y="50.5" width="24" height="24" stroke="black" stroke-opacity="0.05"/>
<rect x="75.5" y="50.5" width="24" height="24" stroke="black" stroke-opacity="0.05"/>
<rect x="100.5" y="50.5" width="24" height="24" stroke="black" stroke-opacity="0.05"/>
<rect x="125.5" y="50.5" width="24" height="24" stroke="black" stroke-opacity="0.05"/>
<rect x="150.5" y="50.5" width="24" height="24" stroke="black" stroke-opacity="0.05"/>
<rect x="175.5" y="50.5" width="24" height="24" stroke="black" stroke-opacity="0.05"/>
<rect x="200.5" y="50.5" width="24" height="24" stroke="black" stroke-opacity="0.05"/>
<rect x="225.5" y="50.5" width="24" height="24" stroke="black" stroke-opacity="0.05"/>
<rect x="250.5" y="50.5" width="24" height="24" stroke="black" stroke-opacity="0.05"/>
<rect x="275.5" y="50.5" width="24" height="24" stroke="black" stroke-opacity="0.05"/>
<rect x="300.5" y="50.5" width="24" height="24" stroke="black" stroke-opacity="0.05"/>
<rect x="325.5" y="50.5" width="24" height="24" stroke="black" stroke-opacity="0.05"/>
<rect x="350.5" y="50.5" width="24" height="24" stroke="black" stroke-opacity="0.05"/>
<rect x="375.5" y="50.5" width="24" height="24" stroke="black" stroke-opacity="0.05"/>
<rect x="400.5" y="50.5" width="24" height="24" stroke="black" stroke-opacity="0.05"/>
<rect x="425.5" y="50.5" width="24" height="24" stroke="black" stroke-opacity="0.05"/>
<rect x="450.5" y="50.5" width="24" height="24" stroke="black" stroke-opacity="0.05"/>
<rect x="475.5" y="50.5" width="24" height="24" stroke="black" stroke-opacity="0.05"/>
<rect x="500.5" y="50.5" width="24" height="24" stroke="black" stroke-opacity="0.05"/>
<rect x="525.5" y="50.5" width="24" height="24" stroke="black" stroke-opacity="0.05"/>
<rect x="550.5" y="50.5" width="24" height="24" stroke="black" stroke-opacity="0.05"/>
<rect x="575.5" y="50.5" width="24" height="24" stroke="black" stroke-opacity="0.05"/>
<rect x="600.5" y="50.5" width="24" height="24" stroke="black" stroke-opacity="0.05"/>
<rect x="625.5" y="50.5" width="24" height="24" stroke="black" stroke-opacity="0.05"/>
<rect x="650.5" y="50.5" width="24" height="24" stroke="black" stroke-opacity="0.05"/>
<rect x="0.5" y="75.5" width="24" height="24" stroke="black" stroke-opacity="0.05"/>
<rect x="25.5" y="75.5" width="24" height="24" stroke="black" stroke-opacity="0.05"/>
<rect x="50.5" y="75.5" width="24" height="24" stroke="black" stroke-opacity="0.05"/>
<rect x="75.5" y="75.5" width="24" height="24" stroke="black" stroke-opacity="0.05"/>
<rect x="100.5" y="75.5" width="24" height="24" stroke="black" stroke-opacity="0.05"/>
<rect x="125.5" y="75.5" width="24" height="24" stroke="black" stroke-opacity="0.05"/>
<rect x="150.5" y="75.5" width="24" height="24" stroke="black" stroke-opacity="0.05"/>
<rect x="175.5" y="75.5" width="24" height="24" stroke="black" stroke-opacity="0.05"/>
<rect x="200.5" y="75.5" width="24" height="24" stroke="black" stroke-opacity="0.05"/>
<rect x="225.5" y="75.5" width="24" height="24" stroke="black" stroke-opacity="0.05"/>
<rect x="250.5" y="75.5" width="24" height="24" stroke="black" stroke-opacity="0.05"/>
<rect x="275.5" y="75.5" width="24" height="24" stroke="black" stroke-opacity="0.05"/>
<rect x="300.5" y="75.5" width="24" height="24" stroke="black" stroke-opacity="0.05"/>
<rect x="325.5" y="75.5" width="24" height="24" stroke="black" stroke-opacity="0.05"/>
<rect x="350.5" y="75.5" width="24" height="24" stroke="black" stroke-opacity="0.05"/>
<rect x="375.5" y="75.5" width="24" height="24" stroke="black" stroke-opacity="0.05"/>
<rect x="400.5" y="75.5" width="24" height="24" stroke="black" stroke-opacity="0.05"/>
<rect x="425.5" y="75.5" width="24" height="24" stroke="black" stroke-opacity="0.05"/>
<rect x="450.5" y="75.5" width="24" height="24" stroke="black" stroke-opacity="0.05"/>
<rect x="475.5" y="75.5" width="24" height="24" stroke="black" stroke-opacity="0.05"/>
<rect x="500.5" y="75.5" width="24" height="24" stroke="black" stroke-opacity="0.05"/>
<rect x="525.5" y="75.5" width="24" height="24" stroke="black" stroke-opacity="0.05"/>
<rect x="550.5" y="75.5" width="24" height="24" stroke="black" stroke-opacity="0.05"/>
<rect x="575.5" y="75.5" width="24" height="24" stroke="black" stroke-opacity="0.05"/>
<rect x="600.5" y="75.5" width="24" height="24" stroke="black" stroke-opacity="0.05"/>
<rect x="625.5" y="75.5" width="24" height="24" stroke="black" stroke-opacity="0.05"/>
<rect x="650.5" y="75.5" width="24" height="24" stroke="black" stroke-opacity="0.05"/>
<rect x="0.5" y="100.5" width="24" height="24" stroke="black" stroke-opacity="0.05"/>
<rect x="25.5" y="100.5" width="24" height="24" stroke="black" stroke-opacity="0.05"/>
<rect x="50.5" y="100.5" width="24" height="24" stroke="black" stroke-opacity="0.05"/>
<rect x="75.5" y="100.5" width="24" height="24" stroke="black" stroke-opacity="0.05"/>
<rect x="100.5" y="100.5" width="24" height="24" stroke="black" stroke-opacity="0.05"/>
<rect x="125.5" y="100.5" width="24" height="24" stroke="black" stroke-opacity="0.05"/>
<rect x="150.5" y="100.5" width="24" height="24" stroke="black" stroke-opacity="0.05"/>
<rect x="175.5" y="100.5" width="24" height="24" stroke="black" stroke-opacity="0.05"/>
<rect x="200.5" y="100.5" width="24" height="24" stroke="black" stroke-opacity="0.05"/>
<rect x="225.5" y="100.5" width="24" height="24" stroke="black" stroke-opacity="0.05"/>
<rect x="250.5" y="100.5" width="24" height="24" stroke="black" stroke-opacity="0.05"/>
<rect x="275.5" y="100.5" width="24" height="24" stroke="black" stroke-opacity="0.05"/>
<rect x="300.5" y="100.5" width="24" height="24" stroke="black" stroke-opacity="0.05"/>
<rect x="325.5" y="100.5" width="24" height="24" stroke="black" stroke-opacity="0.05"/>
<rect x="350.5" y="100.5" width="24" height="24" stroke="black" stroke-opacity="0.05"/>
<rect x="375.5" y="100.5" width="24" height="24" stroke="black" stroke-opacity="0.05"/>
<rect x="400.5" y="100.5" width="24" height="24" stroke="black" stroke-opacity="0.05"/>
<rect x="425.5" y="100.5" width="24" height="24" stroke="black" stroke-opacity="0.05"/>
<rect x="450.5" y="100.5" width="24" height="24" stroke="black" stroke-opacity="0.05"/>
<rect x="475.5" y="100.5" width="24" height="24" stroke="black" stroke-opacity="0.05"/>
<rect x="500.5" y="100.5" width="24" height="24" stroke="black" stroke-opacity="0.05"/>
<rect x="525.5" y="100.5" width="24" height="24" stroke="black" stroke-opacity="0.05"/>
<rect x="550.5" y="100.5" width="24" height="24" stroke="black" stroke-opacity="0.05"/>
<rect x="575.5" y="100.5" width="24" height="24" stroke="black" stroke-opacity="0.05"/>
<rect x="600.5" y="100.5" width="24" height="24" stroke="black" stroke-opacity="0.05"/>
<rect x="625.5" y="100.5" width="24" height="24" stroke="black" stroke-opacity="0.05"/>
<rect x="650.5" y="100.5" width="24" height="24" stroke="black" stroke-opacity="0.05"/>
<rect x="0.5" y="125.5" width="24" height="24" stroke="black" stroke-opacity="0.05"/>
<rect x="25.5" y="125.5" width="24" height="24" stroke="black" stroke-opacity="0.05"/>
<rect x="50.5" y="125.5" width="24" height="24" stroke="black" stroke-opacity="0.05"/>
<rect x="75.5" y="125.5" width="24" height="24" stroke="black" stroke-opacity="0.05"/>
<rect x="100.5" y="125.5" width="24" height="24" stroke="black" stroke-opacity="0.05"/>
<rect x="125.5" y="125.5" width="24" height="24" stroke="black" stroke-opacity="0.05"/>
<rect x="150.5" y="125.5" width="24" height="24" stroke="black" stroke-opacity="0.05"/>
<rect x="175.5" y="125.5" width="24" height="24" stroke="black" stroke-opacity="0.05"/>
<rect x="200.5" y="125.5" width="24" height="24" stroke="black" stroke-opacity="0.05"/>
<rect x="225.5" y="125.5" width="24" height="24" stroke="black" stroke-opacity="0.05"/>
<rect x="250.5" y="125.5" width="24" height="24" stroke="black" stroke-opacity="0.05"/>
<rect x="275.5" y="125.5" width="24" height="24" stroke="black" stroke-opacity="0.05"/>
<rect x="300.5" y="125.5" width="24" height="24" stroke="black" stroke-opacity="0.05"/>
<rect x="325.5" y="125.5" width="24" height="24" stroke="black" stroke-opacity="0.05"/>
<rect x="350.5" y="125.5" width="24" height="24" stroke="black" stroke-opacity="0.05"/>
<rect x="375.5" y="125.5" width="24" height="24" stroke="black" stroke-opacity="0.05"/>
<rect x="400.5" y="125.5" width="24" height="24" stroke="black" stroke-opacity="0.05"/>
<rect x="425.5" y="125.5" width="24" height="24" stroke="black" stroke-opacity="0.05"/>
<rect x="450.5" y="125.5" width="24" height="24" stroke="black" stroke-opacity="0.05"/>
<rect x="475.5" y="125.5" width="24" height="24" stroke="black" stroke-opacity="0.05"/>
<rect x="500.5" y="125.5" width="24" height="24" stroke="black" stroke-opacity="0.05"/>
<rect x="525.5" y="125.5" width="24" height="24" stroke="black" stroke-opacity="0.05"/>
<rect x="550.5" y="125.5" width="24" height="24" stroke="black" stroke-opacity="0.05"/>
<rect x="575.5" y="125.5" width="24" height="24" stroke="black" stroke-opacity="0.05"/>
<rect x="600.5" y="125.5" width="24" height="24" stroke="black" stroke-opacity="0.05"/>
<rect x="625.5" y="125.5" width="24" height="24" stroke="black" stroke-opacity="0.05"/>
<rect x="650.5" y="125.5" width="24" height="24" stroke="black" stroke-opacity="0.05"/>
<rect x="0.5" y="150.5" width="24" height="24" stroke="black" stroke-opacity="0.05"/>
<rect x="25.5" y="150.5" width="24" height="24" stroke="black" stroke-opacity="0.05"/>
<rect x="50.5" y="150.5" width="24" height="24" stroke="black" stroke-opacity="0.05"/>
<rect x="75.5" y="150.5" width="24" height="24" stroke="black" stroke-opacity="0.05"/>
<rect x="100.5" y="150.5" width="24" height="24" stroke="black" stroke-opacity="0.05"/>
<rect x="125.5" y="150.5" width="24" height="24" stroke="black" stroke-opacity="0.05"/>
<rect x="150.5" y="150.5" width="24" height="24" stroke="black" stroke-opacity="0.05"/>
<rect x="175.5" y="150.5" width="24" height="24" stroke="black" stroke-opacity="0.05"/>
<rect x="200.5" y="150.5" width="24" height="24" stroke="black" stroke-opacity="0.05"/>
<rect x="225.5" y="150.5" width="24" height="24" stroke="black" stroke-opacity="0.05"/>
<rect x="250.5" y="150.5" width="24" height="24" stroke="black" stroke-opacity="0.05"/>
<rect x="275.5" y="150.5" width="24" height="24" stroke="black" stroke-opacity="0.05"/>
<rect x="300.5" y="150.5" width="24" height="24" stroke="black" stroke-opacity="0.05"/>
<rect x="325.5" y="150.5" width="24" height="24" stroke="black" stroke-opacity="0.05"/>
<rect x="350.5" y="150.5" width="24" height="24" stroke="black" stroke-opacity="0.05"/>
<rect x="375.5" y="150.5" width="24" height="24" stroke="black" stroke-opacity="0.05"/>
<rect x="400.5" y="150.5" width="24" height="24" stroke="black" stroke-opacity="0.05"/>
<rect x="425.5" y="150.5" width="24" height="24" stroke="black" stroke-opacity="0.05"/>
<rect x="450.5" y="150.5" width="24" height="24" stroke="black" stroke-opacity="0.05"/>
<rect x="475.5" y="150.5" width="24" height="24" stroke="black" stroke-opacity="0.05"/>
<rect x="500.5" y="150.5" width="24" height="24" stroke="black" stroke-opacity="0.05"/>
<rect x="525.5" y="150.5" width="24" height="24" stroke="black" stroke-opacity="0.05"/>
<rect x="550.5" y="150.5" width="24" height="24" stroke="black" stroke-opacity="0.05"/>
<rect x="575.5" y="150.5" width="24" height="24" stroke="black" stroke-opacity="0.05"/>
<rect x="600.5" y="150.5" width="24" height="24" stroke="black" stroke-opacity="0.05"/>
<rect x="625.5" y="150.5" width="24" height="24" stroke="black" stroke-opacity="0.05"/>
<rect x="650.5" y="150.5" width="24" height="24" stroke="black" stroke-opacity="0.05"/>
<rect x="0.5" y="175.5" width="24" height="24" stroke="black" stroke-opacity="0.05"/>
<rect x="25.5" y="175.5" width="24" height="24" stroke="black" stroke-opacity="0.05"/>
<rect x="50.5" y="175.5" width="24" height="24" stroke="black" stroke-opacity="0.05"/>
<rect x="75.5" y="175.5" width="24" height="24" stroke="black" stroke-opacity="0.05"/>
<rect x="100.5" y="175.5" width="24" height="24" stroke="black" stroke-opacity="0.05"/>
<rect x="125.5" y="175.5" width="24" height="24" stroke="black" stroke-opacity="0.05"/>
<rect x="150.5" y="175.5" width="24" height="24" stroke="black" stroke-opacity="0.05"/>
<rect x="175.5" y="175.5" width="24" height="24" stroke="black" stroke-opacity="0.05"/>
<rect x="200.5" y="175.5" width="24" height="24" stroke="black" stroke-opacity="0.05"/>
<rect x="225.5" y="175.5" width="24" height="24" stroke="black" stroke-opacity="0.05"/>
<rect x="250.5" y="175.5" width="24" height="24" stroke="black" stroke-opacity="0.05"/>
<rect x="275.5" y="175.5" width="24" height="24" stroke="black" stroke-opacity="0.05"/>
<rect x="300.5" y="175.5" width="24" height="24" stroke="black" stroke-opacity="0.05"/>
<rect x="325.5" y="175.5" width="24" height="24" stroke="black" stroke-opacity="0.05"/>
<rect x="350.5" y="175.5" width="24" height="24" stroke="black" stroke-opacity="0.05"/>
<rect x="375.5" y="175.5" width="24" height="24" stroke="black" stroke-opacity="0.05"/>
<rect x="400.5" y="175.5" width="24" height="24" stroke="black" stroke-opacity="0.05"/>
<rect x="425.5" y="175.5" width="24" height="24" stroke="black" stroke-opacity="0.05"/>
<rect x="450.5" y="175.5" width="24" height="24" stroke="black" stroke-opacity="0.05"/>
<rect x="475.5" y="175.5" width="24" height="24" stroke="black" stroke-opacity="0.05"/>
<rect x="500.5" y="175.5" width="24" height="24" stroke="black" stroke-opacity="0.05"/>
<rect x="525.5" y="175.5" width="24" height="24" stroke="black" stroke-opacity="0.05"/>
<rect x="550.5" y="175.5" width="24" height="24" stroke="black" stroke-opacity="0.05"/>
<rect x="575.5" y="175.5" width="24" height="24" stroke="black" stroke-opacity="0.05"/>
<rect x="600.5" y="175.5" width="24" height="24" stroke="black" stroke-opacity="0.05"/>
<rect x="625.5" y="175.5" width="24" height="24" stroke="black" stroke-opacity="0.05"/>
<rect x="650.5" y="175.5" width="24" height="24" stroke="black" stroke-opacity="0.05"/>
</svg>
